<?xml version="1.0" standalone="no"?>
<!DOCTYPE svg PUBLIC "-//W3C//DTD SVG 20010904//EN"
 "http://www.w3.org/TR/2001/REC-SVG-20010904/DTD/svg10.dtd">
<svg version="1.0" xmlns="http://www.w3.org/2000/svg"
 width="200.000000pt" height="200.000000pt" viewBox="0 0 200.000000 200.000000"
 preserveAspectRatio="xMidYMid meet">

<g transform="translate(0.000000,200.000000) scale(0.100000,-0.100000)"
fill="#000000" stroke="none">
<path d="M893 1435 c-78 -39 -133 -126 -133 -210 0 -58 7 -65 66 -65 l55 0
-27 46 c-15 26 -23 45 -18 42 73 -35 92 -40 135 -35 51 6 121 36 113 49 -7 11
-54 -1 -86 -23 -34 -24 -37 -24 -30 3 6 23 6 23 -23 4 l-28 -18 7 32 c3 18 6
66 6 108 0 74 0 75 19 58 11 -10 22 -28 24 -40 2 -11 5 -2 6 22 l1 42 25 -16
c29 -19 61 -68 84 -130 l17 -45 43 31 c24 18 45 30 47 27 7 -6 -75 -180 -89
-189 -7 -4 -83 -8 -170 -8 -103 0 -156 -3 -152 -10 3 -6 52 -10 111 -10 95 0
105 -2 102 -17 -2 -14 -15 -19 -61 -21 -31 -2 -57 -7 -57 -12 0 -6 9 -10 21
-10 36 0 19 -34 -19 -38 -17 -2 -32 -7 -32 -13 0 -5 41 -9 91 -9 81 0 90 -2
87 -17 -2 -14 -15 -19 -61 -21 -91 -5 -66 -22 32 -22 85 0 125 11 81 23 -11 3
-20 12 -20 21 0 12 10 16 39 16 22 0 42 4 46 10 3 5 -31 10 -87 12 -79 3 -93
6 -96 21 -3 15 7 17 107 17 67 0 111 4 111 10 0 6 -22 10 -49 10 -59 0 -81 7
-81 26 0 11 18 14 78 14 76 0 79 1 91 27 7 15 15 48 18 74 16 135 -97 259
-237 259 -40 0 -71 -7 -107 -25z"/>
<path d="M973 1315 c0 -27 2 -38 4 -22 2 15 2 37 0 50 -2 12 -4 0 -4 -28z"/>
<path d="M800 1060 c0 -5 11 -10 25 -10 14 0 25 5 25 10 0 6 -11 10 -25 10
-14 0 -25 -4 -25 -10z"/>
<path d="M1125 750 c-7 -12 2 -30 16 -30 5 0 9 9 9 20 0 21 -15 27 -25 10z"/>
<path d="M1430 740 c0 -11 5 -20 10 -20 6 0 10 9 10 20 0 11 -4 20 -10 20 -5
0 -10 -9 -10 -20z"/>
<path d="M536 719 c-11 -54 -8 -69 14 -69 17 0 20 7 20 50 0 58 -23 71 -34 19z"/>
<path d="M600 700 c0 -38 4 -50 15 -50 11 0 15 12 15 50 0 38 -4 50 -15 50
-11 0 -15 -12 -15 -50z"/>
<path d="M808 728 c-6 -46 3 -78 24 -78 16 0 19 6 17 50 -2 40 -6 50 -20 50
-11 0 -19 -9 -21 -22z"/>
<path d="M360 695 c0 -42 2 -45 26 -45 14 0 23 4 19 10 -3 6 -2 10 4 10 5 0
11 -6 14 -12 3 -7 5 -4 4 8 -1 15 -6 20 -19 16 -14 -3 -18 2 -18 21 0 14 6 28
13 30 6 3 0 6 -15 6 -27 1 -28 -1 -28 -44z"/>
<path d="M1059 717 c-10 -10 -15 -26 -11 -42 5 -30 28 -43 45 -26 8 8 8 11 0
11 -7 0 -13 17 -15 37 -3 34 -4 36 -19 20z"/>
<path d="M1370 723 c-23 -9 -28 -23 -21 -52 5 -17 15 -27 31 -29 19 -3 21 -1
15 15 -5 10 -9 30 -9 46 -1 15 -1 27 -1 26 0 0 -7 -3 -15 -6z"/>
<path d="M450 691 c-7 -15 -6 -23 6 -35 17 -18 44 -21 44 -6 0 6 -4 10 -10 10
-5 0 -10 10 -10 21 0 16 5 20 20 16 11 -3 18 -1 14 4 -10 16 -53 9 -64 -10z"/>
<path d="M661 691 c-8 -15 -7 -23 5 -35 17 -18 44 -21 44 -6 0 6 -4 10 -10 10
-5 0 -10 9 -10 20 0 11 7 20 15 20 18 0 20 -16 3 -23 -8 -3 -5 -6 5 -6 30 -2
16 34 -15 37 -18 2 -30 -3 -37 -17z"/>
<path d="M873 694 c-8 -22 9 -48 36 -52 22 -4 29 13 9 21 -8 3 -7 6 4 6 9 1
19 5 22 10 4 5 -3 7 -14 4 -11 -3 -20 -1 -20 5 0 6 8 13 18 15 9 3 2 5 -16 6
-22 1 -35 -4 -39 -15z"/>
<path d="M975 698 c-11 -34 -9 -52 7 -56 12 -2 19 5 24 25 4 15 12 31 18 35 6
4 -2 8 -17 8 -15 0 -30 -6 -32 -12z"/>
<path d="M1120 680 c0 -20 5 -30 15 -30 10 0 15 10 15 30 0 20 -5 30 -15 30
-10 0 -15 -10 -15 -30z"/>
<path d="M1180 680 c0 -20 5 -30 15 -30 9 0 15 9 15 24 0 13 6 27 13 29 6 3 0
6 -15 6 -25 1 -28 -3 -28 -29z"/>
<path d="M1278 701 c11 -7 11 -9 -2 -14 -9 -4 -15 -14 -15 -24 1 -17 2 -17 6
0 5 21 23 23 23 2 0 -8 7 -15 15 -15 10 0 15 10 15 30 0 26 -4 30 -27 30 -19
0 -24 -3 -15 -9z"/>
<path d="M1420 680 c0 -23 4 -30 20 -30 16 0 20 7 20 30 0 23 -4 30 -20 30
-16 0 -20 -7 -20 -30z"/>
<path d="M1484 688 c-12 -40 46 -63 69 -27 16 26 1 49 -32 49 -22 0 -32 -6
-37 -22z m66 -8 c0 -11 -7 -20 -15 -20 -8 0 -15 9 -15 20 0 11 7 20 15 20 8 0
15 -9 15 -20z"/>
<path d="M1570 680 c0 -23 4 -30 20 -30 16 0 20 7 20 30 0 23 -4 30 -20 30
-16 0 -20 -7 -20 -30z"/>
<path d="M1632 680 c0 -19 2 -27 5 -17 2 9 2 25 0 35 -3 9 -5 1 -5 -18z"/>
<path d="M1242 675 c0 -16 2 -22 5 -12 2 9 2 23 0 30 -3 6 -5 -1 -5 -18z"/>
<path d="M780 676 c0 -8 4 -17 9 -20 5 -4 7 3 4 14 -6 23 -13 26 -13 6z"/>
<path d="M498 673 c7 -3 16 -2 19 1 4 3 -2 6 -13 5 -11 0 -14 -3 -6 -6z"/>
</g>
</svg>
